ffmpeg started on 2025-06-04 at 19:38:10
Report written to "D:\Convert\FFMetrics\reports\psnr_report-6.txt"
Log level: 32
Command line:
ffmpeg -hide_banner -nostdin -i "G:\\\xc0\xed\xe8\xec\xe5\\\xce\xed\xe3\xee\xe8\xed\xe3\xe8\\!_36_\xce\xf1\xe5\xed\xfc_2024\\DreamCast\\\xc2\xfb \xef\xf0\xe0\xe2\xe4\xe0 \xe6\xe5\xed\xe8\xf2\xe5\xf1\xfc\\[DC] Kekkon Surutte Hontou Desuka - 09_Telegram_HEVC.mkv" -i "G:\\\xc0\xed\xe8\xec\xe5\\\xce\xed\xe3\xee\xe8\xed\xe3\xe8\\!_36_\xce\xf1\xe5\xed\xfc_2024\\DreamCast\\\xc2\xfb \xef\xf0\xe0\xe2\xe4\xe0 \xe6\xe5\xed\xe8\xf2\xe5\xf1\xfc\\[DC] Kekkon Surutte Hontou Desuka - 09_Telegram.mp4" -lavfi "[0:v]settb=AVTB,setpts=PTS-STARTPTS,format=pix_fmts=yuv420p10,fps=24000/1001,scale=1920:1080:flags=bicubic[main];[1:v]settb=AVTB,setpts=PTS-STARTPTS,format=pix_fmts=yuv420p,fps=24000/1001,scale=1920:1080:flags=bicubic[ref];[main][ref]psnr=eof_action=endall:stats_file='D\\:/Convert/FFMetrics/logs/psnr_logfile-6.txt'" -f null -
Input #0, matroska,webm, from 'G:\Аниме\Онгоинги\!_36_Осень_2024\DreamCast\Вы правда женитесь\[DC] Kekkon Surutte Hontou Desuka - 09_Telegram_HEVC.mkv':
  Metadata:
    COMPATIBLE_BRANDS: isomiso2avc1mp41
    MAJOR_BRAND     : isom
    MINOR_VERSION   : 512
    ENCODER         : Lavf61.7.100
  Duration: 00:23:47.76, start: -0.021000, bitrate: 1208 kb/s
  Stream #0:0: Video: hevc (Main 10), yuv420p10le(tv, bt709, progressive), 1920x1080 [SAR 1:1 DAR 16:9], 23.98 fps, 23.98 tbr, 1k tbn (default)
      Metadata:
        HANDLER_NAME    : VideoHandler
        VENDOR_ID       : [0][0][0][0]
        ENCODER         : Lavc61.19.100 libx265
        BPS             : 1011874
        DURATION        : 00:23:46.591708333
        NUMBER_OF_FRAMES: 34204
        NUMBER_OF_BYTES : 180441433
        _STATISTICS_WRITING_APP: mkvpropedit v66.0.0 ('Josie') 64-bit
        _STATISTICS_WRITING_DATE_UTC: 2025-05-30 08:44:40
        _STATISTICS_TAGS: BPS DURATION NUMBER_OF_FRAMES NUMBER_OF_BYTES
  Stream #0:1: Audio: aac (LC), 48000 Hz, stereo, fltp (default)
      Metadata:
        HANDLER_NAME    : SoundHandler
        VENDOR_ID       : [0][0][0][0]
        ENCODER         : Lavc61.19.100 aac
        BPS             : 193595
        DURATION        : 00:23:47.754000000
        NUMBER_OF_FRAMES: 66927
        NUMBER_OF_BYTES : 34550919
        _STATISTICS_WRITING_APP: mkvpropedit v66.0.0 ('Josie') 64-bit
        _STATISTICS_WRITING_DATE_UTC: 2025-05-30 08:44:40
        _STATISTICS_TAGS: BPS DURATION NUMBER_OF_FRAMES NUMBER_OF_BYTES
Input #1, mov,mp4,m4a,3gp,3g2,mj2, from 'G:\Аниме\Онгоинги\!_36_Осень_2024\DreamCast\Вы правда женитесь\[DC] Kekkon Surutte Hontou Desuka - 09_Telegram.mp4':
  Metadata:
    major_brand     : isom
    minor_version   : 512
    compatible_brands: isomiso2avc1mp41
    encoder         : Lavf61.1.100
  Duration: 00:23:47.72, start: 0.000000, bitrate: 3832 kb/s
  Stream #1:0[0x1](und): Video: h264 (High) (avc1 / 0x31637661), yuv420p(tv, bt709, progressive), 1920x1080 [SAR 1:1 DAR 16:9], 3687 kb/s, 23.98 fps, 23.98 tbr, 24k tbn (default)
      Metadata:
        handler_name    : VideoHandler
        vendor_id       : [0][0][0][0]
        encoder         : Lavc61.3.100 h264_qsv
  Stream #1:1[0x2](und): Audio: aac (HE-AACv2) (mp4a / 0x6134706D), 48000 Hz, stereo, fltp, 144 kb/s (default)
      Metadata:
        handler_name    : SoundHandler
        vendor_id       : [0][0][0][0]
Stream mapping:
  Stream #0:0 (hevc) -> settb:default
  Stream #1:0 (h264) -> settb:default
  psnr:default -> Stream #0:0 (wrapped_avframe)
  Stream #0:1 -> #0:1 (aac (native) -> pcm_s16le (native))
Output #0, null, to 'pipe:':
  Metadata:
    COMPATIBLE_BRANDS: isomiso2avc1mp41
    MAJOR_BRAND     : isom
    MINOR_VERSION   : 512
    encoder         : Lavf61.7.100
  Stream #0:0: Video: wrapped_avframe, yuv420p10le(tv, bt709, progressive), 1920x1080 [SAR 1:1 DAR 16:9], q=2-31, 200 kb/s, 23.98 fps, 23.98 tbn
      Metadata:
        encoder         : Lavc61.19.100 wrapped_avframe
  Stream #0:1: Audio: pcm_s16le, 48000 Hz, stereo, s16, 1536 kb/s (default)
      Metadata:
        HANDLER_NAME    : SoundHandler
        VENDOR_ID       : [0][0][0][0]
        _STATISTICS_TAGS: BPS DURATION NUMBER_OF_FRAMES NUMBER_OF_BYTES
        BPS             : 193595
        DURATION        : 00:23:47.754000000
        NUMBER_OF_FRAMES: 66927
        NUMBER_OF_BYTES : 34550919
        _STATISTICS_WRITING_APP: mkvpropedit v66.0.0 ('Josie') 64-bit
        _STATISTICS_WRITING_DATE_UTC: 2025-05-30 08:44:40
        encoder         : Lavc61.19.100 pcm_s16le
frame=  160 fps=0.0 q=-0.0 size=N/A time=00:00:06.67 bitrate=N/A speed=13.1x    frame=  379 fps=367 q=-0.0 size=N/A time=00:00:15.80 bitrate=N/A speed=15.3x    frame=  619 fps=403 q=-0.0 size=N/A time=00:00:25.81 bitrate=N/A speed=16.8x    frame=  872 fps=424 q=-0.0 size=N/A time=00:00:36.36 bitrate=N/A speed=17.7x    frame= 1116 fps=432 q=-0.0 size=N/A time=00:00:46.54 bitrate=N/A speed=  18x    frame= 1354 fps=438 q=-0.0 size=N/A time=00:00:56.47 bitrate=N/A speed=18.3x    frame= 1578 fps=437 q=-0.0 size=N/A time=00:01:05.81 bitrate=N/A speed=18.2x    frame= 1793 fps=435 q=-0.0 size=N/A time=00:01:14.78 bitrate=N/A speed=18.2x    frame= 1999 fps=431 q=-0.0 size=N/A time=00:01:23.37 bitrate=N/A speed=  18x    frame= 2234 fps=434 q=-0.0 size=N/A time=00:01:33.17 bitrate=N/A speed=18.1x    frame= 2450 fps=432 q=-0.0 size=N/A time=00:01:42.18 bitrate=N/A speed=  18x    frame= 2688 fps=434 q=-0.0 size=N/A time=00:01:52.11 bitrate=N/A speed=18.1x    frame= 2867 fps=428 q=-0.0 size=N/A time=00:01:59.57 bitrate=N/A speed=17.9x    frame= 3072 fps=425 q=-0.0 size=N/A time=00:02:08.12 bitrate=N/A speed=17.7x    frame= 3261 fps=422 q=-0.0 size=N/A time=00:02:16.01 bitrate=N/A speed=17.6x    frame= 3493 fps=423 q=-0.0 size=N/A time=00:02:25.68 bitrate=N/A speed=17.7x    frame= 3722 fps=425 q=-0.0 size=N/A time=00:02:35.23 bitrate=N/A speed=17.7x    frame= 3964 fps=427 q=-0.0 size=N/A time=00:02:45.33 bitrate=N/A speed=17.8x    frame= 4147 fps=424 q=-0.0 size=N/A time=00:02:52.96 bitrate=N/A speed=17.7x    frame= 4380 fps=425 q=-0.0 size=N/A time=00:03:02.68 bitrate=N/A speed=17.7x    frame= 4623 fps=427 q=-0.0 size=N/A time=00:03:12.81 bitrate=N/A speed=17.8x    frame= 4881 fps=430 q=-0.0 size=N/A time=00:03:23.57 bitrate=N/A speed=17.9x    frame= 5097 fps=430 q=-0.0 size=N/A time=00:03:32.58 bitrate=N/A speed=17.9x    frame= 5351 fps=432 q=-0.0 size=N/A time=00:03:43.18 bitrate=N/A speed=  18x    frame= 5586 fps=433 q=-0.0 size=N/A time=00:03:52.98 bitrate=N/A speed=18.1x    frame= 5851 fps=437 q=-0.0 size=N/A time=00:04:04.03 bitrate=N/A speed=18.2x    frame= 6104 fps=439 q=-0.0 size=N/A time=00:04:14.58 bitrate=N/A speed=18.3x    frame= 6356 fps=440 q=-0.0 size=N/A time=00:04:25.09 bitrate=N/A speed=18.4x    frame= 6604 fps=442 q=-0.0 size=N/A time=00:04:35.44 bitrate=N/A speed=18.4x    frame= 6858 fps=444 q=-0.0 size=N/A time=00:04:46.03 bitrate=N/A speed=18.5x    frame= 7082 fps=443 q=-0.0 size=N/A time=00:04:55.37 bitrate=N/A speed=18.5x    frame= 7297 fps=442 q=-0.0 size=N/A time=00:05:04.34 bitrate=N/A speed=18.4x    frame= 7555 fps=444 q=-0.0 size=N/A time=00:05:15.10 bitrate=N/A speed=18.5x    frame= 7786 fps=444 q=-0.0 size=N/A time=00:05:24.74 bitrate=N/A speed=18.5x    frame= 8029 fps=445 q=-0.0 size=N/A time=00:05:34.87 bitrate=N/A speed=18.6x    frame= 8267 fps=446 q=-0.0 size=N/A time=00:05:44.80 bitrate=N/A speed=18.6x    frame= 8500 fps=446 q=-0.0 size=N/A time=00:05:54.52 bitrate=N/A speed=18.6x    frame= 8757 fps=447 q=-0.0 size=N/A time=00:06:05.23 bitrate=N/A speed=18.6x    frame= 9009 fps=448 q=-0.0 size=N/A time=00:06:15.75 bitrate=N/A speed=18.7x    frame= 9279 fps=450 q=-0.0 size=N/A time=00:06:27.01 bitrate=N/A speed=18.8x    frame= 9531 fps=451 q=-0.0 size=N/A time=00:06:37.52 bitrate=N/A speed=18.8x    frame= 9769 fps=451 q=-0.0 size=N/A time=00:06:47.44 bitrate=N/A speed=18.8x    frame=10014 fps=452 q=-0.0 size=N/A time=00:06:57.66 bitrate=N/A speed=18.8x    frame=10270 fps=453 q=-0.0 size=N/A time=00:07:08.34 bitrate=N/A speed=18.9x    frame=10502 fps=453 q=-0.0 size=N/A time=00:07:18.02 bitrate=N/A speed=18.9x    frame=10769 fps=454 q=-0.0 size=N/A time=00:07:29.15 bitrate=N/A speed=18.9x    frame=10980 fps=453 q=-0.0 size=N/A time=00:07:37.95 bitrate=N/A speed=18.9x    frame=11218 fps=453 q=-0.0 size=N/A time=00:07:47.88 bitrate=N/A speed=18.9x    frame=11446 fps=453 q=-0.0 size=N/A time=00:07:57.39 bitrate=N/A speed=18.9x    frame=11692 fps=454 q=-0.0 size=N/A time=00:08:07.65 bitrate=N/A speed=18.9x    frame=11932 fps=454 q=-0.0 size=N/A time=00:08:17.66 bitrate=N/A speed=18.9x    frame=12149 fps=453 q=-0.0 size=N/A time=00:08:26.71 bitrate=N/A speed=18.9x    frame=12437 fps=455 q=-0.0 size=N/A time=00:08:38.72 bitrate=N/A speed=  19x    frame=12697 fps=456 q=-0.0 size=N/A time=00:08:49.57 bitrate=N/A speed=  19x    frame=12942 fps=456 q=-0.0 size=N/A time=00:08:59.78 bitrate=N/A speed=  19x    frame=13209 fps=458 q=-0.0 size=N/A time=00:09:10.92 bitrate=N/A speed=19.1x    frame=13425 fps=457 q=-0.0 size=N/A time=00:09:19.93 bitrate=N/A speed=  19x    frame=13672 fps=457 q=-0.0 size=N/A time=00:09:30.23 bitrate=N/A speed=19.1x    frame=13937 fps=458 q=-0.0 size=N/A time=00:09:41.28 bitrate=N/A speed=19.1x    frame=14173 fps=458 q=-0.0 size=N/A time=00:09:51.13 bitrate=N/A speed=19.1x    frame=14423 fps=459 q=-0.0 size=N/A time=00:10:01.55 bitrate=N/A speed=19.1x    frame=14641 fps=458 q=-0.0 size=N/A time=00:10:10.65 bitrate=N/A speed=19.1x    frame=14894 fps=458 q=-0.0 size=N/A time=00:10:21.20 bitrate=N/A speed=19.1x    frame=15138 fps=459 q=-0.0 size=N/A time=00:10:31.38 bitrate=N/A speed=19.1x    frame=15398 fps=459 q=-0.0 size=N/A time=00:10:42.22 bitrate=N/A speed=19.2x    frame=15658 fps=460 q=-0.0 size=N/A time=00:10:53.06 bitrate=N/A speed=19.2x    frame=15868 fps=459 q=-0.0 size=N/A time=00:11:01.82 bitrate=N/A speed=19.2x    frame=16087 fps=459 q=-0.0 size=N/A time=00:11:10.96 bitrate=N/A speed=19.1x    frame=16321 fps=459 q=-0.0 size=N/A time=00:11:20.72 bitrate=N/A speed=19.1x    frame=16579 fps=459 q=-0.0 size=N/A time=00:11:31.48 bitrate=N/A speed=19.2x    frame=16789 fps=459 q=-0.0 size=N/A time=00:11:40.24 bitrate=N/A speed=19.1x    frame=16990 fps=458 q=-0.0 size=N/A time=00:11:48.62 bitrate=N/A speed=19.1x    frame=17220 fps=457 q=-0.0 size=N/A time=00:11:58.21 bitrate=N/A speed=19.1x    frame=17439 fps=457 q=-0.0 size=N/A time=00:12:07.35 bitrate=N/A speed=19.1x    frame=17658 fps=457 q=-0.0 size=N/A time=00:12:16.48 bitrate=N/A speed=  19x    frame=17895 fps=457 q=-0.0 size=N/A time=00:12:26.37 bitrate=N/A speed=  19x    frame=18133 fps=457 q=-0.0 size=N/A time=00:12:36.29 bitrate=N/A speed=19.1x    frame=18356 fps=456 q=-0.0 size=N/A time=00:12:45.59 bitrate=N/A speed=  19x    frame=18585 fps=456 q=-0.0 size=N/A time=00:12:55.14 bitrate=N/A speed=  19x    frame=18818 fps=456 q=-0.0 size=N/A time=00:13:04.86 bitrate=N/A speed=  19x    frame=19056 fps=456 q=-0.0 size=N/A time=00:13:14.79 bitrate=N/A speed=  19x    frame=19283 fps=456 q=-0.0 size=N/A time=00:13:24.26 bitrate=N/A speed=  19x    frame=19450 fps=454 q=-0.0 size=N/A time=00:13:31.22 bitrate=N/A speed=  19x    frame=19685 fps=454 q=-0.0 size=N/A time=00:13:41.02 bitrate=N/A speed=  19x    frame=19901 fps=454 q=-0.0 size=N/A time=00:13:50.03 bitrate=N/A speed=18.9x    frame=20147 fps=454 q=-0.0 size=N/A time=00:14:00.29 bitrate=N/A speed=  19x    frame=20375 fps=454 q=-0.0 size=N/A time=00:14:09.80 bitrate=N/A speed=18.9x    frame=20602 fps=454 q=-0.0 size=N/A time=00:14:19.27 bitrate=N/A speed=18.9x    frame=20819 fps=454 q=-0.0 size=N/A time=00:14:28.32 bitrate=N/A speed=18.9x    frame=21055 fps=454 q=-0.0 size=N/A time=00:14:38.16 bitrate=N/A speed=18.9x    frame=21285 fps=454 q=-0.0 size=N/A time=00:14:47.76 bitrate=N/A speed=18.9x    frame=21510 fps=454 q=-0.0 size=N/A time=00:14:57.14 bitrate=N/A speed=18.9x    frame=21742 fps=453 q=-0.0 size=N/A time=00:15:06.82 bitrate=N/A speed=18.9x    frame=21983 fps=454 q=-0.0 size=N/A time=00:15:16.87 bitrate=N/A speed=18.9x    frame=22218 fps=454 q=-0.0 size=N/A time=00:15:26.67 bitrate=N/A speed=18.9x    frame=22452 fps=454 q=-0.0 size=N/A time=00:15:36.43 bitrate=N/A speed=18.9x    frame=22691 fps=454 q=-0.0 size=N/A time=00:15:46.40 bitrate=N/A speed=18.9x    frame=22925 fps=454 q=-0.0 size=N/A time=00:15:56.16 bitrate=N/A speed=18.9x    frame=23159 fps=454 q=-0.0 size=N/A time=00:16:05.92 bitrate=N/A speed=18.9x    frame=23434 fps=454 q=-0.0 size=N/A time=00:16:17.39 bitrate=N/A speed=  19x    frame=23670 fps=455 q=-0.0 size=N/A time=00:16:27.23 bitrate=N/A speed=  19x    frame=23915 fps=455 q=-0.0 size=N/A time=00:16:37.45 bitrate=N/A speed=  19x    frame=24154 fps=455 q=-0.0 size=N/A time=00:16:47.42 bitrate=N/A speed=  19x    frame=24409 fps=455 q=-0.0 size=N/A time=00:16:58.05 bitrate=N/A speed=  19x    frame=24674 fps=456 q=-0.0 size=N/A time=00:17:09.11 bitrate=N/A speed=  19x    frame=24885 fps=455 q=-0.0 size=N/A time=00:17:17.91 bitrate=N/A speed=  19x    frame=25164 fps=456 q=-0.0 size=N/A time=00:17:29.54 bitrate=N/A speed=  19x    frame=25409 fps=456 q=-0.0 size=N/A time=00:17:39.76 bitrate=N/A speed=  19x    frame=25639 fps=456 q=-0.0 size=N/A time=00:17:49.35 bitrate=N/A speed=  19x    frame=25852 fps=456 q=-0.0 size=N/A time=00:17:58.24 bitrate=N/A speed=  19x    frame=26095 fps=456 q=-0.0 size=N/A time=00:18:08.37 bitrate=N/A speed=  19x    frame=26326 fps=456 q=-0.0 size=N/A time=00:18:18.01 bitrate=N/A speed=  19x    frame=26589 fps=456 q=-0.0 size=N/A time=00:18:28.98 bitrate=N/A speed=  19x    frame=26836 fps=457 q=-0.0 size=N/A time=00:18:39.28 bitrate=N/A speed=  19x    frame=27054 fps=456 q=-0.0 size=N/A time=00:18:48.37 bitrate=N/A speed=  19x    frame=27283 fps=456 q=-0.0 size=N/A time=00:18:57.92 bitrate=N/A speed=  19x    frame=27528 fps=456 q=-0.0 size=N/A time=00:19:08.14 bitrate=N/A speed=  19x    frame=27782 fps=457 q=-0.0 size=N/A time=00:19:18.74 bitrate=N/A speed=  19x    frame=28016 fps=457 q=-0.0 size=N/A time=00:19:28.50 bitrate=N/A speed=  19x    frame=28241 fps=456 q=-0.0 size=N/A time=00:19:37.88 bitrate=N/A speed=  19x    frame=28468 fps=456 q=-0.0 size=N/A time=00:19:47.35 bitrate=N/A speed=  19x    frame=28712 fps=456 q=-0.0 size=N/A time=00:19:57.52 bitrate=N/A speed=  19x    frame=28962 fps=457 q=-0.0 size=N/A time=00:20:07.95 bitrate=N/A speed=  19x    frame=29214 fps=457 q=-0.0 size=N/A time=00:20:18.46 bitrate=N/A speed=19.1x    frame=29457 fps=457 q=-0.0 size=N/A time=00:20:28.60 bitrate=N/A speed=19.1x    frame=29708 fps=457 q=-0.0 size=N/A time=00:20:39.07 bitrate=N/A speed=19.1x    frame=29955 fps=458 q=-0.0 size=N/A time=00:20:49.37 bitrate=N/A speed=19.1x    frame=30210 fps=458 q=-0.0 size=N/A time=00:21:00.00 bitrate=N/A speed=19.1x    frame=30465 fps=458 q=-0.0 size=N/A time=00:21:10.64 bitrate=N/A speed=19.1x    frame=30729 fps=458 q=-0.0 size=N/A time=00:21:21.65 bitrate=N/A speed=19.1x    frame=30984 fps=459 q=-0.0 size=N/A time=00:21:32.29 bitrate=N/A speed=19.1x    frame=31200 fps=458 q=-0.0 size=N/A time=00:21:41.30 bitrate=N/A speed=19.1x    frame=31440 fps=459 q=-0.0 size=N/A time=00:21:51.31 bitrate=N/A speed=19.1x    frame=31645 fps=458 q=-0.0 size=N/A time=00:21:59.86 bitrate=N/A speed=19.1x    frame=31877 fps=458 q=-0.0 size=N/A time=00:22:09.53 bitrate=N/A speed=19.1x    frame=32089 fps=458 q=-0.0 size=N/A time=00:22:18.37 bitrate=N/A speed=19.1x    frame=32215 fps=456 q=-0.0 size=N/A time=00:22:23.63 bitrate=N/A speed=  19x    frame=32385 fps=455 q=-0.0 size=N/A time=00:22:30.72 bitrate=N/A speed=  19x    frame=32584 fps=455 q=-0.0 size=N/A time=00:22:39.02 bitrate=N/A speed=  19x    frame=32749 fps=454 q=-0.0 size=N/A time=00:22:45.90 bitrate=N/A speed=18.9x    frame=32922 fps=453 q=-0.0 size=N/A time=00:22:53.12 bitrate=N/A speed=18.9x    frame=33085 fps=452 q=-0.0 size=N/A time=00:22:59.92 bitrate=N/A speed=18.8x    frame=33241 fps=451 q=-0.0 size=N/A time=00:23:06.42 bitrate=N/A speed=18.8x    frame=33427 fps=450 q=-0.0 size=N/A time=00:23:14.18 bitrate=N/A speed=18.8x    frame=33606 fps=450 q=-0.0 size=N/A time=00:23:21.65 bitrate=N/A speed=18.7x    frame=33785 fps=449 q=-0.0 size=N/A time=00:23:29.11 bitrate=N/A speed=18.7x    frame=33957 fps=448 q=-0.0 size=N/A time=00:23:36.28 bitrate=N/A speed=18.7x    frame=34151 fps=448 q=-0.0 size=N/A time=00:23:44.38 bitrate=N/A speed=18.7x    [Parsed_psnr_10 @ 000002460047da00] PSNR y:47.808654 u:50.782752 v:51.076441 average:48.621884 min:41.229028 max:inf
[out#0/null @ 000002467331f080] video:14697KiB audio:267708KiB subtitle:0KiB other streams:0KiB global headers:0KiB muxing overhead: unknown
frame=34204 fps=447 q=-0.0 Lsize=N/A time=00:23:46.59 bitrate=N/A speed=18.7x    
